<svg width="41" height="38" viewBox="0 0 41 38" fill="none" xmlns="http://www.w3.org/2000/svg">
<g filter="url(#filter0_di_6_1546)">
<circle cx="17.1" cy="12.25" r="8.57499" fill="#FBCA1C"/>
<circle cx="17.1" cy="12.25" r="8.57499" fill="url(#paint0_radial_6_1546)" fill-opacity="0.2"/>
</g>
<g filter="url(#filter1_di_6_1546)">
<path d="M33.8298 17.5582C33.8376 17.4231 33.8416 17.287 33.8416 17.1499C33.8416 13.3161 30.7337 10.2083 26.9 10.2083C25.0552 10.2083 23.3784 10.9279 22.1352 12.1018C21.5063 11.9321 20.845 11.8416 20.1625 11.8416C17.6939 11.8416 15.502 13.0256 14.1235 14.8568C13.7033 14.7543 13.2642 14.6999 12.8125 14.6999C9.768 14.6999 7.29999 17.1679 7.29999 20.2124C7.29999 20.2266 7.30004 20.2408 7.30014 20.255C7.30004 20.2649 7.29999 20.2749 7.29999 20.2849C7.29999 23.9659 10.284 26.9499 13.965 26.9499H24.45C29.6369 26.9499 33.8416 22.7451 33.8416 17.5582H33.8298Z" fill="white"/>
<path d="M33.8298 17.5582C33.8376 17.4231 33.8416 17.287 33.8416 17.1499C33.8416 13.3161 30.7337 10.2083 26.9 10.2083C25.0552 10.2083 23.3784 10.9279 22.1352 12.1018C21.5063 11.9321 20.845 11.8416 20.1625 11.8416C17.6939 11.8416 15.502 13.0256 14.1235 14.8568C13.7033 14.7543 13.2642 14.6999 12.8125 14.6999C9.768 14.6999 7.29999 17.1679 7.29999 20.2124C7.29999 20.2266 7.30004 20.2408 7.30014 20.255C7.30004 20.2649 7.29999 20.2749 7.29999 20.2849C7.29999 23.9659 10.284 26.9499 13.965 26.9499H24.45C29.6369 26.9499 33.8416 22.7451 33.8416 17.5582H33.8298Z" fill="url(#paint1_radial_6_1546)" fill-opacity="0.2"/>
</g>
<defs>
<filter id="filter0_di_6_1546" x="5.2583" y="0.408386" width="23.6833" height="23.6832" filterUnits="userSpaceOnUse" color-interpolation-filters="sRGB">
<feFlood flood-opacity="0" result="BackgroundImageFix"/>
<feColorMatrix in="SourceAlpha" type="matrix" values="0 0 0 0 0 0 0 0 0 0 0 0 0 0 0 0 0 0 127 0" result="hardAlpha"/>
<feMorphology radius="1.225" operator="dilate" in="SourceAlpha" result="effect1_dropShadow_6_1546"/>
<feOffset/>
<feGaussianBlur stdDeviation="1.02083"/>
<feComposite in2="hardAlpha" operator="out"/>
<feColorMatrix type="matrix" values="0 0 0 0 0.984314 0 0 0 0 0.792157 0 0 0 0 0.109804 0 0 0 0.2 0"/>
<feBlend mode="normal" in2="BackgroundImageFix" result="effect1_dropShadow_6_1546"/>
<feBlend mode="normal" in="SourceGraphic" in2="effect1_dropShadow_6_1546" result="shape"/>
<feColorMatrix in="SourceAlpha" type="matrix" values="0 0 0 0 0 0 0 0 0 0 0 0 0 0 0 0 0 0 127 0" result="hardAlpha"/>
<feOffset/>
<feGaussianBlur stdDeviation="1.8375"/>
<feComposite in2="hardAlpha" operator="arithmetic" k2="-1" k3="1"/>
<feColorMatrix type="matrix" values="0 0 0 0 0.984314 0 0 0 0 0.529569 0 0 0 0 0.109804 0 0 0 0.5 0"/>
<feBlend mode="normal" in2="shape" result="effect2_innerShadow_6_1546"/>
</filter>
<filter id="filter1_di_6_1546" x="0.766661" y="7.75825" width="39.6083" height="29.8084" filterUnits="userSpaceOnUse" color-interpolation-filters="sRGB">
<feFlood flood-opacity="0" result="BackgroundImageFix"/>
<feColorMatrix in="SourceAlpha" type="matrix" values="0 0 0 0 0 0 0 0 0 0 0 0 0 0 0 0 0 0 127 0" result="hardAlpha"/>
<feOffset dy="4.08333"/>
<feGaussianBlur stdDeviation="3.26666"/>
<feComposite in2="hardAlpha" operator="out"/>
<feColorMatrix type="matrix" values="0 0 0 0 0.301961 0 0 0 0 0.368627 0 0 0 0 0.435294 0 0 0 0.08 0"/>
<feBlend mode="normal" in2="BackgroundImageFix" result="effect1_dropShadow_6_1546"/>
<feBlend mode="normal" in="SourceGraphic" in2="effect1_dropShadow_6_1546" result="shape"/>
<feColorMatrix in="SourceAlpha" type="matrix" values="0 0 0 0 0 0 0 0 0 0 0 0 0 0 0 0 0 0 127 0" result="hardAlpha"/>
<feOffset/>
<feGaussianBlur stdDeviation="1.225"/>
<feComposite in2="hardAlpha" operator="arithmetic" k2="-1" k3="1"/>
<feColorMatrix type="matrix" values="0 0 0 0 0.301961 0 0 0 0 0.368627 0 0 0 0 0.435294 0 0 0 0.08 0"/>
<feBlend mode="normal" in2="shape" result="effect2_innerShadow_6_1546"/>
</filter>
<radialGradient id="paint0_radial_6_1546" cx="0" cy="0" r="1" gradientUnits="userSpaceOnUse" gradientTransform="translate(15.0583 8.98338) rotate(50.7106) scale(11.607 8.10858)">
<stop stop-color="#FBCA1C"/>
<stop offset="1" stop-color="#E4750E"/>
</radialGradient>
<radialGradient id="paint1_radial_6_1546" cx="0" cy="0" r="1" gradientUnits="userSpaceOnUse" gradientTransform="translate(25.8791 11.8416) rotate(121.827) scale(20.9059 33.1435)">
<stop stop-opacity="0"/>
<stop offset="1" stop-color="#4D5E6F"/>
</radialGradient>
</defs>
</svg>
