<svg width="39" height="32" viewBox="0 0 39 32" fill="none" xmlns="http://www.w3.org/2000/svg">
<g filter="url(#filter0_ddi_6_1600)">
<path d="M8.22248 14.5481C7.80576 14.5481 7.4679 14.8859 7.4679 15.3027C7.4679 15.7195 7.80576 16.0573 8.22248 16.0573H25.9818C25.725 16.5012 25.578 17.0167 25.578 17.5665C25.578 19.2335 26.9294 20.5848 28.5963 20.5848C30.2633 20.5848 31.6147 19.2335 31.6147 17.5665C31.6147 15.8994 30.2633 14.5481 28.5963 14.5481H8.22248Z" fill="#C01B3C"/>
<path d="M24.6394 12.1722C24.5368 12.5726 24.7787 12.987 25.1904 13.0223C25.9342 13.0862 26.6862 12.9655 27.3782 12.6656C28.3004 12.266 29.0634 11.5709 29.547 10.6899C30.0306 9.8088 30.2072 8.79189 30.0492 7.79935C29.8911 6.80682 29.4073 5.89509 28.6739 5.20784C27.9406 4.52059 26.9994 4.09688 25.9987 4.00348C24.998 3.91009 23.9947 4.15231 23.1469 4.69199C22.299 5.23166 21.6548 6.03811 21.3158 6.98425C21.0614 7.69421 20.9897 8.45255 21.1017 9.19054C21.1637 9.59914 21.5929 9.81369 21.9857 9.68532C22.3785 9.55695 22.5827 9.13255 22.5542 8.72026C22.5256 8.30513 22.5825 7.88581 22.7247 7.48905C22.9516 6.85566 23.3829 6.31579 23.9505 5.9545C24.5181 5.59322 25.1897 5.43106 25.8596 5.49358C26.5296 5.55611 27.1596 5.83976 27.6506 6.29984C28.1415 6.75992 28.4654 7.37027 28.5712 8.03473C28.677 8.69918 28.5588 9.37995 28.235 9.96977C27.9113 10.5596 27.4005 11.0249 26.7832 11.2925C26.3964 11.46 25.9817 11.544 25.5656 11.5423C25.1523 11.5407 24.742 11.7719 24.6394 12.1722Z" fill="#C01B3C"/>
<path d="M10.4862 12.2844C10.4862 11.8676 10.8241 11.5298 11.2408 11.5298H25.578V13.0389H11.2408C10.8241 13.0389 10.4862 12.7011 10.4862 12.2844Z" fill="#C01B3C"/>
<path d="M11.9954 18.321C11.9954 17.9043 12.3333 17.5665 12.75 17.5665H20.2959C20.7126 17.5665 21.0505 17.9043 21.0505 18.321C21.0505 18.7378 20.7126 19.0756 20.2959 19.0756H12.75C12.3333 19.0756 11.9954 18.7378 11.9954 18.321Z" fill="#C01B3C"/>
<path d="M17.2775 10.0206C18.5278 10.0206 19.5413 9.00707 19.5413 7.75682C19.5413 6.50658 18.5278 5.49306 17.2775 5.49306C16.0273 5.49306 15.0138 6.50658 15.0138 7.75682C15.0138 8.02142 15.0591 8.27537 15.1425 8.51141H8.22248C7.80576 8.51141 7.4679 8.84923 7.4679 9.266C7.4679 9.68276 7.80576 10.0206 8.22248 10.0206H17.2775Z" fill="#C01B3C"/>
</g>
<defs>
<filter id="filter0_ddi_6_1600" x="-1.58715" y="0.965538" width="42.2569" height="34.7109" filterUnits="userSpaceOnUse" color-interpolation-filters="sRGB">
<feFlood flood-opacity="0" result="BackgroundImageFix"/>
<feColorMatrix in="SourceAlpha" type="matrix" values="0 0 0 0 0 0 0 0 0 0 0 0 0 0 0 0 0 0 127 0" result="hardAlpha"/>
<feOffset/>
<feGaussianBlur stdDeviation="1.50917"/>
<feComposite in2="hardAlpha" operator="out"/>
<feColorMatrix type="matrix" values="0 0 0 0 0.717647 0 0 0 0 0.0941176 0 0 0 0 0.203922 0 0 0 0.4 0"/>
<feBlend mode="normal" in2="BackgroundImageFix" result="effect1_dropShadow_6_1600"/>
<feColorMatrix in="SourceAlpha" type="matrix" values="0 0 0 0 0 0 0 0 0 0 0 0 0 0 0 0 0 0 127 0" result="hardAlpha"/>
<feOffset dy="6.0367"/>
<feGaussianBlur stdDeviation="4.52752"/>
<feComposite in2="hardAlpha" operator="out"/>
<feColorMatrix type="matrix" values="0 0 0 0 0.752941 0 0 0 0 0.105882 0 0 0 0 0.235294 0 0 0 0.38 0"/>
<feBlend mode="normal" in2="effect1_dropShadow_6_1600" result="effect2_dropShadow_6_1600"/>
<feBlend mode="normal" in="SourceGraphic" in2="effect2_dropShadow_6_1600" result="shape"/>
<feColorMatrix in="SourceAlpha" type="matrix" values="0 0 0 0 0 0 0 0 0 0 0 0 0 0 0 0 0 0 127 0" result="hardAlpha"/>
<feOffset dx="-1.50917" dy="-1.50917"/>
<feGaussianBlur stdDeviation="0.754587"/>
<feComposite in2="hardAlpha" operator="arithmetic" k2="-1" k3="1"/>
<feColorMatrix type="matrix" values="0 0 0 0 0 0 0 0 0 0 0 0 0 0 0 0 0 0 0.25 0"/>
<feBlend mode="normal" in2="shape" result="effect3_innerShadow_6_1600"/>
</filter>
</defs>
</svg>
